<svg width="585" height="421" viewBox="0 0 585 421" fill="none" xmlns="http://www.w3.org/2000/svg">
<path fill-rule="evenodd" clip-rule="evenodd" d="M563.238 321.561C410.567 367.025 243.03 396.648 66.3072 406.947C42.363 366.701 28.6133 319.697 28.6133 269.486C28.6133 120.653 149.42 0 298.443 0C447.465 0 568.272 120.653 568.272 269.486C568.272 287.301 566.541 304.712 563.238 321.561Z" fill="#054494"/>
<path d="M310.134 38.24H299.254V29.92C299.254 29.4108 299.051 28.9224 298.691 28.5624C298.331 28.2023 297.843 28 297.334 28H284.534C284.025 28 283.536 28.2023 283.176 28.5624C282.816 28.9224 282.614 29.4108 282.614 29.92V50.4C282.615 51.5878 283.088 52.7265 283.927 53.5663C284.767 54.4062 285.906 54.8786 287.094 54.88H297.974V58.08C297.974 58.5892 298.176 59.0776 298.536 59.4376C298.896 59.7977 299.385 60 299.894 60H312.694C313.203 60 313.691 59.7977 314.051 59.4376C314.411 59.0776 314.614 58.5892 314.614 58.08V42.72C314.612 41.5322 314.14 40.3935 313.3 39.5537C312.46 38.7138 311.322 38.2414 310.134 38.24ZM283.894 50.4V29.92C283.894 29.7503 283.961 29.5875 284.081 29.4675C284.201 29.3474 284.364 29.28 284.534 29.28H297.334C297.504 29.28 297.666 29.3474 297.786 29.4675C297.906 29.5875 297.974 29.7503 297.974 29.92V38.24H294.774C293.586 38.2414 292.447 38.7138 291.607 39.5537C290.768 40.3935 290.295 41.5322 290.294 42.72V50.4C290.294 51.2487 289.957 52.0626 289.357 52.6627C288.756 53.2629 287.942 53.6 287.094 53.6C286.245 53.6 285.431 53.2629 284.831 52.6627C284.231 52.0626 283.894 51.2487 283.894 50.4ZM290.223 53.6C290.65 53.184 290.99 52.6865 291.222 52.1368C291.454 51.5872 291.574 50.9966 291.574 50.4V42.72C291.574 41.8713 291.911 41.0574 292.511 40.4573C293.111 39.8571 293.925 39.52 294.774 39.52C295.622 39.52 296.436 39.8571 297.037 40.4573C297.637 41.0574 297.974 41.8713 297.974 42.72V53.6H290.223ZM313.334 58.08C313.334 58.2497 313.266 58.4125 313.146 58.5325C313.026 58.6526 312.864 58.72 312.694 58.72H299.894C299.724 58.72 299.561 58.6526 299.441 58.5325C299.321 58.4125 299.254 58.2497 299.254 58.08V42.72C299.252 42.1244 299.132 41.5351 298.901 40.9859C298.67 40.4368 298.333 39.9386 297.91 39.52H310.134C310.982 39.521 311.795 39.8585 312.395 40.4584C312.995 41.0583 313.333 41.8716 313.334 42.72V58.08Z" fill="#2E7ACF"/>
<path d="M310.134 43.3604H302.454C302.284 43.3604 302.121 43.4278 302.001 43.5478C301.881 43.6678 301.814 43.8306 301.814 44.0004C301.814 44.1701 301.881 44.3329 302.001 44.4529C302.121 44.5729 302.284 44.6404 302.454 44.6404H310.134C310.303 44.6404 310.466 44.5729 310.586 44.4529C310.706 44.3329 310.774 44.1701 310.774 44.0004C310.774 43.8306 310.706 43.6678 310.586 43.5478C310.466 43.4278 310.303 43.3604 310.134 43.3604Z" fill="#2E7ACF"/>
<path d="M310.134 48.4805H302.454C302.284 48.4805 302.121 48.5479 302.001 48.6679C301.881 48.7879 301.814 48.9507 301.814 49.1205C301.814 49.2902 301.881 49.453 302.001 49.573C302.121 49.693 302.284 49.7605 302.454 49.7605H310.134C310.303 49.7605 310.466 49.693 310.586 49.573C310.706 49.453 310.774 49.2902 310.774 49.1205C310.774 48.9507 310.706 48.7879 310.586 48.6679C310.466 48.5479 310.303 48.4805 310.134 48.4805Z" fill="#2E7ACF"/>
<path d="M310.134 53.5996H302.454C302.284 53.5996 302.121 53.667 302.001 53.7871C301.881 53.9071 301.814 54.0699 301.814 54.2396C301.814 54.4093 301.881 54.5721 302.001 54.6922C302.121 54.8122 302.284 54.8796 302.454 54.8796H310.134C310.303 54.8796 310.466 54.8122 310.586 54.6922C310.706 54.5721 310.774 54.4093 310.774 54.2396C310.774 54.0699 310.706 53.9071 310.586 53.7871C310.466 53.667 310.303 53.5996 310.134 53.5996Z" fill="#2E7ACF"/>
<path d="M294.774 34.4001C294.943 34.4001 295.106 34.3327 295.226 34.2127C295.346 34.0926 295.414 33.9299 295.414 33.7601C295.414 33.5904 295.346 33.4276 295.226 33.3076C295.106 33.1875 294.943 33.1201 294.774 33.1201H287.094C286.924 33.1201 286.761 33.1875 286.641 33.3076C286.521 33.4276 286.454 33.5904 286.454 33.7601C286.454 33.9299 286.521 34.0926 286.641 34.2127C286.761 34.3327 286.924 34.4001 287.094 34.4001H294.774Z" fill="#2E7ACF"/>
<path d="M137.014 92H116.534C116.025 92 115.536 92.2023 115.176 92.5624C114.816 92.9224 114.614 93.4108 114.614 93.92V122.08C114.614 122.589 114.816 123.078 115.176 123.438C115.536 123.798 116.025 124 116.534 124H137.014C137.523 124 138.011 123.798 138.371 123.438C138.731 123.078 138.934 122.589 138.934 122.08V93.92C138.934 93.4108 138.731 92.9224 138.371 92.5624C138.011 92.2023 137.523 92 137.014 92ZM137.654 122.08C137.654 122.25 137.586 122.413 137.466 122.533C137.346 122.653 137.184 122.72 137.014 122.72H116.534C116.364 122.72 116.201 122.653 116.081 122.533C115.961 122.413 115.894 122.25 115.894 122.08V93.92C115.894 93.7503 115.961 93.5875 116.081 93.4675C116.201 93.3474 116.364 93.28 116.534 93.28H137.014C137.184 93.28 137.346 93.3474 137.466 93.4675C137.586 93.5875 137.654 93.7503 137.654 93.92V122.08Z" fill="#2E7ACF"/>
<path d="M123.574 108C123.574 108.109 123.601 108.216 123.655 108.311C123.708 108.407 123.784 108.487 123.877 108.544C123.97 108.602 124.076 108.634 124.185 108.639C124.294 108.644 124.402 108.621 124.5 108.573L126.774 107.435L129.048 108.576C129.145 108.625 129.254 108.648 129.363 108.643C129.473 108.637 129.579 108.604 129.672 108.547C129.765 108.489 129.841 108.408 129.894 108.313C129.947 108.217 129.974 108.109 129.974 108V102.809C130.591 102.179 131.009 101.38 131.174 100.514C131.34 99.6472 131.246 98.7511 130.904 97.9378C130.562 97.1246 129.988 96.4303 129.253 95.942C128.518 95.4538 127.656 95.1934 126.774 95.1934C125.892 95.1934 125.029 95.4538 124.294 95.942C123.56 96.4303 122.985 97.1246 122.644 97.9378C122.302 98.7511 122.208 99.6472 122.373 100.514C122.539 101.38 122.956 102.179 123.574 102.809V108ZM128.694 106.964L127.06 106.147C126.971 106.103 126.873 106.079 126.774 106.079C126.674 106.079 126.576 106.103 126.488 106.147L124.854 106.964V103.721C125.453 104.01 126.109 104.16 126.774 104.16C127.439 104.16 128.095 104.01 128.694 103.721V106.964ZM126.774 96.4797C127.407 96.4797 128.025 96.6674 128.552 97.019C129.078 97.3707 129.488 97.8704 129.73 98.4552C129.972 99.0399 130.036 99.6833 129.912 100.304C129.789 100.925 129.484 101.495 129.036 101.942C128.589 102.39 128.019 102.695 127.398 102.818C126.777 102.942 126.134 102.878 125.549 102.636C124.964 102.394 124.465 101.984 124.113 101.458C123.761 100.931 123.574 100.313 123.574 99.6797C123.575 98.8314 123.912 98.018 124.512 97.4181C125.112 96.8182 125.925 96.4808 126.774 96.4797Z" fill="#2E7ACF"/>
<path d="M130.614 118.88H119.094C118.924 118.88 118.761 118.947 118.641 119.067C118.521 119.187 118.454 119.35 118.454 119.52C118.454 119.69 118.521 119.852 118.641 119.972C118.761 120.092 118.924 120.16 119.094 120.16H130.614C130.784 120.16 130.946 120.092 131.066 119.972C131.186 119.852 131.254 119.69 131.254 119.52C131.254 119.35 131.186 119.187 131.066 119.067C130.946 118.947 130.784 118.88 130.614 118.88Z" fill="#2E7ACF"/>
<path d="M134.454 115.04H119.094C118.924 115.04 118.761 115.107 118.641 115.227C118.521 115.348 118.454 115.51 118.454 115.68C118.454 115.85 118.521 116.013 118.641 116.133C118.761 116.253 118.924 116.32 119.094 116.32H134.454C134.624 116.32 134.786 116.253 134.906 116.133C135.026 116.013 135.094 115.85 135.094 115.68C135.094 115.51 135.026 115.348 134.906 115.227C134.786 115.107 134.624 115.04 134.454 115.04Z" fill="#2E7ACF"/>
<path d="M134.454 111.2H119.094C118.924 111.2 118.761 111.268 118.641 111.388C118.521 111.508 118.454 111.67 118.454 111.84C118.454 112.01 118.521 112.173 118.641 112.293C118.761 112.413 118.924 112.48 119.094 112.48H134.454C134.624 112.48 134.786 112.413 134.906 112.293C135.026 112.173 135.094 112.01 135.094 111.84C135.094 111.67 135.026 111.508 134.906 111.388C134.786 111.268 134.624 111.2 134.454 111.2Z" fill="#2E7ACF"/>
<path d="M83.6938 194H55.5338C55.0246 194 54.5362 194.202 54.1761 194.562C53.8161 194.922 53.6138 195.411 53.6138 195.92V213.84C53.6138 214.349 53.8161 214.838 54.1761 215.198C54.5362 215.558 55.0246 215.76 55.5338 215.76H83.6938C84.203 215.76 84.6913 215.558 85.0514 215.198C85.4115 214.838 85.6138 214.349 85.6138 213.84V195.92C85.6138 195.411 85.4115 194.922 85.0514 194.562C84.6913 194.202 84.203 194 83.6938 194ZM54.8938 213.84V195.92C54.8938 195.75 54.9612 195.587 55.0812 195.467C55.2012 195.347 55.364 195.28 55.5338 195.28H68.9738V214.48H55.5338C55.364 214.48 55.2012 214.413 55.0812 214.293C54.9612 214.173 54.8938 214.01 54.8938 213.84ZM84.3338 213.84C84.3338 214.01 84.2663 214.173 84.1463 214.293C84.0263 214.413 83.8635 214.48 83.6938 214.48H70.2538V195.28H83.6938C83.8635 195.28 84.0263 195.347 84.1463 195.467C84.2663 195.587 84.3338 195.75 84.3338 195.92V213.84Z" fill="#2E7ACF"/>
<path d="M64.0489 204.703C64.5368 204.273 64.8822 203.705 65.0391 203.074C65.196 202.443 65.1571 201.779 64.9274 201.171C64.6977 200.563 64.2882 200.039 63.7534 199.669C63.2186 199.3 62.5839 199.102 61.9337 199.102C61.2836 199.102 60.6488 199.3 60.114 199.669C59.5792 200.039 59.1697 200.563 58.9401 201.171C58.7104 201.779 58.6714 202.443 58.8283 203.074C58.9853 203.705 59.3307 204.273 59.8185 204.703C58.9237 205.109 58.1647 205.764 57.632 206.59C57.0992 207.416 56.8151 208.377 56.8137 209.36V210C56.8137 210.17 56.8811 210.333 57.0012 210.453C57.1212 210.573 57.284 210.64 57.4537 210.64H66.4137C66.5835 210.64 66.7462 210.573 66.8663 210.453C66.9863 210.333 67.0537 210.17 67.0537 210V209.36C67.0523 208.377 66.7683 207.416 66.2355 206.59C65.7027 205.764 64.9437 205.109 64.0489 204.703ZM60.0137 202.32C60.0137 201.94 60.1263 201.569 60.3373 201.253C60.5483 200.938 60.8481 200.692 61.199 200.546C61.5498 200.401 61.9359 200.363 62.3083 200.437C62.6807 200.511 63.0228 200.694 63.2914 200.962C63.5599 201.231 63.7427 201.573 63.8168 201.946C63.8909 202.318 63.8529 202.704 63.7076 203.055C63.5622 203.406 63.3162 203.706 63.0004 203.916C62.6847 204.127 62.3135 204.24 61.9337 204.24C61.4245 204.24 60.9361 204.038 60.5761 203.678C60.216 203.318 60.0137 202.829 60.0137 202.32ZM58.0937 209.36C58.0937 208.342 58.4983 207.365 59.2184 206.645C59.9386 205.925 60.9153 205.52 61.9337 205.52C62.9522 205.52 63.9289 205.925 64.649 206.645C65.3692 207.365 65.7737 208.342 65.7737 209.36H58.0937Z" fill="#2E7ACF"/>
<path d="M74.7337 200.4H79.8537C80.0235 200.4 80.1863 200.333 80.3063 200.213C80.4263 200.093 80.4937 199.93 80.4937 199.76C80.4937 199.59 80.4263 199.428 80.3063 199.308C80.1863 199.188 80.0235 199.12 79.8537 199.12H74.7337C74.564 199.12 74.4012 199.188 74.2812 199.308C74.1612 199.428 74.0938 199.59 74.0938 199.76C74.0938 199.93 74.1612 200.093 74.2812 200.213C74.4012 200.333 74.564 200.4 74.7337 200.4Z" fill="#2E7ACF"/>
<path d="M81.7741 204.24H72.8141C72.6443 204.24 72.4815 204.308 72.3615 204.428C72.2415 204.548 72.1741 204.71 72.1741 204.88C72.1741 205.05 72.2415 205.213 72.3615 205.333C72.4815 205.453 72.6443 205.52 72.8141 205.52H81.7741C81.9438 205.52 82.1066 205.453 82.2266 205.333C82.3466 205.213 82.4141 205.05 82.4141 204.88C82.4141 204.71 82.3466 204.548 82.2266 204.428C82.1066 204.308 81.9438 204.24 81.7741 204.24Z" fill="#2E7ACF"/>
<path d="M79.8537 209.36H74.7337C74.564 209.36 74.4012 209.428 74.2812 209.548C74.1612 209.668 74.0938 209.831 74.0938 210C74.0938 210.17 74.1612 210.333 74.2812 210.453C74.4012 210.573 74.564 210.64 74.7337 210.64H79.8537C80.0235 210.64 80.1863 210.573 80.3063 210.453C80.4263 210.333 80.4937 210.17 80.4937 210C80.4937 209.831 80.4263 209.668 80.3063 209.548C80.1863 209.428 80.0235 209.36 79.8537 209.36Z" fill="#2E7ACF"/>
<path d="M477.694 97H449.534C449.025 97.0006 448.537 97.203 448.177 97.563C447.817 97.9229 447.614 98.411 447.614 98.92V118.76C447.614 119.269 447.817 119.757 448.177 120.117C448.537 120.477 449.025 120.679 449.534 120.68H477.694C478.203 120.679 478.691 120.477 479.051 120.117C479.411 119.757 479.613 119.269 479.614 118.76V98.92C479.613 98.411 479.411 97.9229 479.051 97.563C478.691 97.203 478.203 97.0006 477.694 97ZM478.334 118.76C478.334 118.93 478.266 119.092 478.146 119.212C478.026 119.332 477.863 119.4 477.694 119.4H449.534C449.364 119.4 449.201 119.332 449.081 119.212C448.961 119.092 448.894 118.93 448.894 118.76V106.6H478.334V118.76ZM478.334 105.32H448.894V102.76H478.334V105.32ZM478.334 101.48H448.894V98.92C448.894 98.7503 448.961 98.5876 449.081 98.4676C449.201 98.3477 449.364 98.2802 449.534 98.28H477.694C477.863 98.2802 478.026 98.3477 478.146 98.4676C478.266 98.5876 478.334 98.7503 478.334 98.92V101.48Z" fill="#2E7ACF"/>
<path d="M451.838 117.352L456.958 113.512C457.037 113.452 457.102 113.375 457.146 113.286C457.191 113.198 457.214 113.1 457.214 113C457.214 112.901 457.191 112.803 457.146 112.714C457.102 112.625 457.037 112.548 456.958 112.488L451.838 108.648C451.743 108.577 451.63 108.534 451.511 108.523C451.393 108.512 451.274 108.535 451.168 108.588C451.061 108.641 450.972 108.723 450.91 108.824C450.847 108.925 450.814 109.041 450.814 109.16V116.84C450.814 116.959 450.847 117.075 450.91 117.176C450.972 117.277 451.062 117.359 451.168 117.412C451.274 117.465 451.393 117.488 451.511 117.477C451.63 117.466 451.743 117.423 451.838 117.352ZM452.094 110.44L455.507 113L452.094 115.56V110.44Z" fill="#2E7ACF"/>
<path d="M547.614 205.286V204.524C547.614 203.918 547.373 203.336 546.944 202.908C546.516 202.479 545.934 202.238 545.328 202.238H539.233V199.19H539.995C540.197 199.19 540.391 199.11 540.533 198.967C540.676 198.824 540.757 198.631 540.757 198.429C540.757 198.227 540.676 198.033 540.533 197.89C540.391 197.747 540.197 197.667 539.995 197.667H539.194C539.016 195.919 538.24 194.286 536.998 193.044C535.756 191.802 534.123 191.026 532.376 190.848V187.762C532.376 187.56 532.295 187.366 532.153 187.223C532.01 187.08 531.816 187 531.614 187C531.412 187 531.218 187.08 531.075 187.223C530.932 187.366 530.852 187.56 530.852 187.762V190.848C529.104 191.026 527.471 191.802 526.229 193.044C524.987 194.286 524.212 195.919 524.034 197.667H523.233C523.031 197.667 522.837 197.747 522.694 197.89C522.551 198.033 522.471 198.227 522.471 198.429C522.471 198.631 522.551 198.824 522.694 198.967C522.837 199.11 523.031 199.19 523.233 199.19H523.995V202.238H517.899C517.293 202.238 516.712 202.479 516.283 202.908C515.855 203.336 515.614 203.918 515.614 204.524V205.286C515.614 205.892 515.855 206.473 516.283 206.902C516.712 207.331 517.293 207.571 517.899 207.571V216.714C517.293 216.714 516.712 216.955 516.283 217.384C515.855 217.812 515.614 218.394 515.614 219V221.286C515.614 221.488 515.694 221.682 515.837 221.824C515.98 221.967 516.174 222.048 516.376 222.048H546.852C547.054 222.048 547.248 221.967 547.391 221.824C547.533 221.682 547.614 221.488 547.614 221.286V219C547.614 218.394 547.373 217.812 546.944 217.384C546.516 216.955 545.934 216.714 545.328 216.714V207.571C545.934 207.571 546.516 207.331 546.944 206.902C547.373 206.473 547.614 205.892 547.614 205.286ZM530.09 202.238V199.19H533.138V202.238H530.09ZM534.661 199.19H537.709V202.238H534.661V199.19ZM531.614 192.333C533.098 192.335 534.53 192.878 535.644 193.859C536.757 194.841 537.474 196.194 537.662 197.667H525.566C525.753 196.194 526.471 194.841 527.584 193.859C528.697 192.878 530.13 192.335 531.614 192.333ZM525.519 199.19H528.566V202.238H525.519V199.19ZM517.138 205.286V204.524C517.138 204.322 517.218 204.128 517.361 203.985C517.504 203.842 517.697 203.762 517.899 203.762H545.328C545.53 203.762 545.724 203.842 545.867 203.985C546.01 204.128 546.09 204.322 546.09 204.524V205.286C546.09 205.488 546.01 205.682 545.867 205.824C545.724 205.967 545.53 206.048 545.328 206.048H517.899C517.697 206.048 517.504 205.967 517.361 205.824C517.218 205.682 517.138 205.488 517.138 205.286ZM537.709 216.714V207.571H540.757V216.714H537.709ZM534.661 216.714V207.571H536.185V216.714H534.661ZM530.09 216.714V207.571H533.138V216.714H530.09ZM527.042 216.714V207.571H528.566V216.714H527.042ZM522.471 216.714V207.571H525.519V216.714H522.471ZM519.423 207.571H520.947V216.714H519.423V207.571ZM546.09 219V220.524H517.138V219C517.138 218.798 517.218 218.604 517.361 218.461C517.504 218.318 517.697 218.238 517.899 218.238H545.328C545.53 218.238 545.724 218.318 545.867 218.461C546.01 218.604 546.09 218.798 546.09 219ZM543.804 216.714H542.28V207.571H543.804V216.714Z" fill="#2E7ACF"/>
<path d="M364.968 331.035C349.732 336.426 331.357 335.875 317.494 326.983C303.867 318.241 291.452 311.929 274.685 312.235C259.703 312.508 247.314 320.606 232.804 322.33C221.295 323.697 209.604 318.679 201.263 310.633C193.121 302.779 187.714 290.803 191.254 280.058C193.108 274.432 197.159 269.79 199.471 264.337C204.803 251.759 190.763 244.171 194.255 230.932C197.224 219.672 209.579 211.641 209.395 199.997C209.26 191.474 202.662 184.868 200.338 176.983C197.994 169.027 198.512 160.116 202.647 152.848C205.686 147.508 210.567 143.137 216.224 140.726C221.304 138.562 226.979 138.521 230.908 134.082C237.908 126.17 240.476 117.596 250.082 111.812C258.213 106.915 268.953 106.604 278.282 107.459C299.012 109.359 319.132 120.302 330.808 137.728C334.946 143.905 337.933 150.224 338.037 157.564C338.15 165.588 338.147 173.66 343.064 180.482C347.191 186.21 353.817 189.561 360.387 192.145C366.958 194.729 373.843 196.821 379.61 200.893C385.378 204.964 389.959 211.607 389.286 218.635C388.723 224.517 384.651 229.628 384.109 235.512C383.123 246.212 393.431 253.983 399.785 262.647C408.682 274.778 410.157 291.932 403.461 305.403C395.751 320.913 381.744 324.41 367.067 330.247C366.375 330.522 365.674 330.785 364.968 331.035Z" fill="#0B2D4E"/>
<path d="M254.194 130.994C259.233 128.051 265.088 126.701 270.906 126.47C276.745 126.246 282.595 126.997 288.265 128.408C299.634 131.27 309.988 138.037 317.21 147.344C320.779 152.025 323.541 157.349 325.178 163.029C326.825 168.726 327.161 174.683 327.094 180.512C327.036 186.353 326.62 192.162 326.813 197.908C326.933 200.761 327.286 203.609 328.155 206.271C329.008 208.922 330.489 211.37 332.68 212.966C334.842 214.606 337.619 215.3 340.425 215.635C343.241 215.969 346.181 215.986 349.115 216.378C354.922 217.159 360.826 218.541 365.885 221.871C368.371 223.532 370.608 225.846 371.695 228.768C372.822 231.689 372.595 234.879 371.841 237.791C370.964 240.735 369.295 243.204 368.133 245.779C366.969 248.355 366.223 251.13 365.97 253.953C365.433 259.636 366.892 265.334 368.913 270.726C370.898 276.161 373.283 281.517 374.674 287.226C375.355 290.076 375.771 293.009 375.724 295.95C375.688 298.89 375.152 301.816 374.195 304.581C372.284 310.118 368.683 315.028 364.025 318.51C368.601 314.92 372.054 309.954 373.809 304.452C375.648 298.942 375.404 292.966 373.885 287.424C372.43 281.835 370.006 276.542 367.929 271.093C365.821 265.68 364.213 259.821 364.695 253.844C364.923 250.875 365.668 247.943 366.862 245.208C368.075 242.486 369.695 240.053 370.461 237.387C371.136 234.698 371.316 231.836 370.316 229.292C369.356 226.741 367.365 224.668 365.043 223.128C360.327 220.038 354.57 218.681 348.922 217.956C346.089 217.586 343.195 217.585 340.234 217.25C337.311 216.91 334.211 216.195 331.69 214.299C329.159 212.436 327.517 209.634 326.612 206.776C325.688 203.896 325.342 200.915 325.228 197.968C325.058 192.086 325.503 186.277 325.584 180.493C325.676 174.721 325.365 168.93 323.798 163.418C322.216 157.92 319.608 152.726 316.195 148.113C309.28 138.948 299.209 132.169 288.06 129.19C282.493 127.665 276.708 126.785 270.918 126.873C265.146 126.971 259.3 128.169 254.194 130.994Z" fill="#73B8D4"/>
<path d="M327.532 259.952C328.073 273.1 325.025 282.974 313 289.477C303.423 294.657 291.956 296.356 281.387 296.616C263.663 297.053 243.912 292.482 230.653 280.031C228.247 277.771 225.937 275.001 225.763 271.705C225.605 268.709 227.254 265.886 227.399 262.888C227.644 257.833 223.714 253.646 221.957 248.9C219.637 242.632 221.214 235.634 223.299 229.284C225.383 222.934 227.992 216.522 227.679 209.846C227.273 201.186 222.069 193.625 217.902 186.022C213.736 178.418 210.457 169.169 214.017 161.264C216.363 156.054 221.958 152.049 227.676 151.415C233.716 150.744 239.143 157.646 243.012 161.449C248.219 166.565 254.019 171.077 260.26 174.864C268.891 180.101 278.367 183.964 286.484 189.965C291.397 193.597 296.667 198.582 299.012 204.367C301.655 210.886 297.027 217.197 302.623 223.193C306.233 227.061 311.776 228.377 316.141 231.367C325.486 237.769 327.105 249.571 327.532 259.952Z" fill="#061F33"/>
<path d="M229.645 333.521C242.09 314.343 249.835 290.804 239.021 269.151C237.925 266.956 236.607 264.562 234.279 263.787C229.273 262.123 222.481 263.913 218.128 266.467C203.028 275.326 193.787 291.999 185.304 306.833C176.49 322.244 168.836 338.286 159.979 353.673C156.392 359.905 152.769 366.221 150.845 373.15C149.159 379.218 148.975 386.168 151.274 392.106C161.216 417.78 188.556 386.331 196.876 376.831C208.751 363.273 219.839 348.64 229.645 333.521Z" fill="#26A8D1"/>
<path d="M360.945 329.282C371.347 330.608 382.305 329.695 391.596 324.833C403.426 318.643 409.344 307.292 409.589 294.234C409.767 284.774 407.936 274.914 402.225 267.37C396.016 259.168 385.61 254.125 381.748 244.59C379.247 238.415 379.847 230.007 384.792 225.23C387.94 222.188 390.402 218.758 389.998 214.199C389.404 207.491 384.497 201.046 379.015 197.423C370.978 192.111 360.98 190.167 351.575 188.972C345.206 188.163 338.859 186.373 336.888 179.513C335.825 175.812 336.035 171.907 335.837 168.103C335.413 159.993 334.819 151.881 333.607 143.844C332.211 134.58 326.195 125.62 319.486 119.237C318.522 118.32 317.522 117.443 316.489 116.606C299.192 102.594 267.174 97.63 248.096 110.616C241.591 115.044 237.033 121.82 235.584 129.567C234.616 134.744 233.212 135.858 228.154 137.428C218.966 140.279 208.538 142.303 201.241 149.043C195.532 154.315 192.907 162.299 193.667 169.959C194.637 179.737 201.474 184.415 206.369 192.165C211.367 200.076 207.438 210.031 201.633 216.56C197.163 221.588 190.82 225.261 188.294 231.497C185.971 237.233 187.509 243.865 190.315 249.383C191.452 251.618 192.79 253.753 193.795 256.05C196.853 263.043 196.538 271.424 192.962 278.166" stroke="#0B2D4E" stroke-width="4" stroke-miterlimit="10"/>
<path d="M390.432 344.413C393.614 350.152 396.776 355.901 399.88 361.685C406.181 373.425 417.881 399.511 399.151 405.956C389.714 409.203 384.316 406.028 378.078 399.153C354.478 373.143 334.355 343.989 318.409 312.707C312.474 301.063 296.715 270.722 315.857 263.789C321.9 261.6 328.867 262.11 334.529 265.154C337.117 266.546 339.413 268.422 341.606 270.378C355.42 282.698 365.257 298.594 374.009 314.715C379.418 324.679 384.955 334.532 390.432 344.413Z" fill="#3DC8E8"/>
<path fill-rule="evenodd" clip-rule="evenodd" d="M346.917 385.224L346.829 367.76L346.741 350.379C346.737 349.71 346.806 348.475 346.896 346.883C347.345 338.864 348.303 321.769 343.055 322.002C342.377 322.033 341.755 322.382 341.203 322.778C338.074 325.016 336.465 328.764 335.003 332.323C333.86 335.103 332.764 338.3 331.613 341.654C328.146 351.758 324.191 363.287 317.026 369.152C307.325 377.092 292.409 380.439 280.355 382.345C269.85 384.006 259.216 384.519 248.584 385.033H248.584C244.968 385.207 241.353 385.382 237.743 385.601C228.541 386.161 218.389 387.486 212.344 394.446C209.431 397.8 207.483 402.284 205.816 406.712H346.599C346.984 399.568 346.953 392.374 346.917 385.224Z" fill="#26A8D1"/>
<path d="M281.984 271.842C287.683 270.013 292.378 266.471 294.137 260.839C295.733 255.727 293.216 249.977 292.768 244.819C292.338 239.877 292.283 234.905 292.608 229.956C292.908 225.379 293.345 220.613 292.642 216.052C292.242 213.445 290.811 213.891 288.174 212.855C285.538 211.82 282.579 211.81 279.713 211.817C273.846 211.831 258.551 211.406 254.925 216.554C253.261 218.918 253.13 221.892 253.051 224.705C252.955 228.103 252.354 232.502 251.797 237.242C251.549 239.352 251.702 241.456 251.379 243.551C251.017 245.898 250.126 248.147 249.345 250.395C246.394 258.896 249.158 266.981 258.351 270.873C264.947 273.665 274.363 274.287 281.984 271.842Z" fill="#F8A17A"/>
<path d="M292.611 216.052C292.211 213.445 290.781 213.891 288.143 212.855C285.508 211.82 282.549 211.81 279.682 211.817C273.815 211.831 258.521 211.406 254.895 216.554C253.23 218.918 253.099 221.892 253.02 224.705C252.925 228.103 252.323 232.502 251.766 237.242C251.519 239.352 251.671 241.456 251.348 243.551C251.073 245.338 250.49 247.068 249.884 248.784C255.571 250.896 261.994 251.367 267.928 249.906C278.616 247.275 286.711 240.623 292.483 231.973C292.514 231.3 292.533 230.627 292.577 229.955C292.878 225.379 293.315 220.613 292.611 216.052Z" fill="#E5785C"/>
<path d="M301.13 182.557C301.083 174.722 300.002 167.291 297.986 161.119C289.289 134.493 256.074 127.915 236.072 147.028C213.767 168.342 222.303 219.304 245.797 237.205C252.078 241.991 260.615 243.673 268.244 241.627C291.326 235.437 301.275 207.031 301.13 182.557Z" fill="#F8A17A"/>
<path d="M296.764 183.215C306.983 177.627 310.129 191.776 308.371 198.817C307.644 201.725 306.496 204.561 304.691 206.954C302.26 210.176 295.307 215.522 291.301 211.997C289.483 210.397 289.296 207.679 289.24 205.259C289.09 198.768 289.838 187.002 296.764 183.215Z" fill="#F8A17A"/>
<path d="M301.183 162.216C292.026 134.183 257.056 127.258 235.998 147.38C231.346 151.826 227.988 157.507 225.754 163.889C226.224 164.615 226.749 165.343 227.378 166.073C230.267 169.419 234.256 171.606 238.268 173.461C249.991 178.88 262.626 182.06 275.32 184.439C276.255 184.614 277.196 184.787 278.135 184.972C281.629 185.662 285.098 186.523 288.149 188.322C296.776 193.407 293.066 204.591 299.386 209.492C299.958 209.936 300.536 210.222 301.113 210.426C303.448 202.077 304.543 193.212 304.493 184.787C304.443 176.538 303.305 168.713 301.183 162.216Z" fill="#E5785C"/>
<path d="M279.04 181.771C282.38 183.009 285.666 184.413 288.392 186.674C296.098 193.07 290.651 203.519 296.109 209.366C300.944 214.546 308.287 207.701 310.211 202.917C313.754 194.102 313.546 184.293 313.285 174.797C313.139 169.501 312.981 164.13 311.429 159.065C309.735 153.54 306.436 148.61 302.508 144.371C291.167 132.133 274.051 125.771 257.48 126.815C244.521 127.631 221.788 138.521 231.947 155.019C234.266 158.783 237.854 161.577 241.52 164.049C252.228 171.268 264.194 176.423 276.346 180.795C277.241 181.117 278.142 181.438 279.04 181.771Z" fill="#0B2D4E"/>
<path d="M235.6 393.994H156.503V409.48H235.6V393.994Z" fill="#64D3ED"/>
<path d="M170.075 395.496L150.113 293.869C149.586 291.184 147.232 289.248 144.497 289.248H11.7929C9.87134 289.248 8.22539 290.198 7.19343 291.608L7.176 291.591L1.04834 298.836L6.4844 297.644L26.1388 397.702C26.6662 400.387 29.0192 402.323 31.7554 402.323H164.46C168.063 402.323 170.77 399.032 170.075 395.496Z" fill="#64D3ED"/>
<path d="M25.688 409.48H158.392C161.996 409.48 164.703 406.189 164.009 402.653L144.046 301.026C143.519 298.341 141.166 296.405 138.43 296.405H5.72547C2.12181 296.405 -0.585367 299.696 0.109187 303.232L20.0713 404.86C20.5988 407.544 22.9518 409.48 25.688 409.48Z" fill="white"/>
<path d="M67.4307 350.424C68.6551 357.28 75.2047 362.837 82.0598 362.837C88.9152 362.837 93.4005 357.28 92.0785 350.424C90.7565 343.569 84.2069 338.012 77.4495 338.012C70.6924 338.012 66.2067 343.569 67.4307 350.424Z" fill="#64D3ED"/>
<path d="M448.339 348.806C449.801 345.782 449.54 342.604 448.618 339.721C447.731 336.775 446.149 334.237 444.435 331.462C442.704 328.727 440.937 325.745 439.854 322.154C438.757 318.523 439.07 314.452 440.08 311.009C442.26 303.986 446.724 298.81 449.799 293.516C451.34 290.837 452.601 288.116 453.1 285.104C453.66 282.122 453.467 278.945 452.003 275.95C454.543 278.173 455.774 281.776 455.94 285.264C456.098 288.789 455.209 292.365 453.857 295.509C451.188 301.886 447.187 307.064 445.629 312.662C444.746 315.432 444.529 318.117 445.156 320.805C445.68 323.56 447.121 326.34 448.416 329.355C449.792 332.3 451.107 335.703 451.399 339.202C451.696 342.65 450.907 346.547 448.339 348.806Z" fill="white"/>
<path d="M461.2 409.155H438.206C433.665 409.155 429.984 405.474 429.984 400.933V352.666H469.421V400.933C469.421 405.474 465.74 409.155 461.2 409.155Z" fill="#3DC8E8"/>
<path d="M472.177 365.442C462.72 365.442 455.054 373.221 455.054 382.817C455.054 392.413 462.72 400.191 472.177 400.191C481.633 400.191 489.3 392.413 489.3 382.817C489.3 373.221 481.634 365.442 472.177 365.442ZM472.177 393.996C466.092 393.996 461.16 388.991 461.16 382.817C461.16 376.644 466.092 371.639 472.177 371.639C478.261 371.639 483.194 376.644 483.194 382.817C483.194 388.991 478.261 393.996 472.177 393.996Z" fill="#3DC8E8"/>
<path opacity="0.2" d="M435.883 387.713C434.71 387.713 433.751 386.754 433.751 385.581V358.09C433.751 356.918 434.71 355.958 435.883 355.958C437.055 355.958 438.015 356.918 438.015 358.09V385.581C438.015 386.754 437.055 387.713 435.883 387.713Z" fill="white"/>
<path d="M460.315 352.666V399.167C460.315 404.683 455.844 409.155 450.328 409.155H459.435C464.951 409.155 469.423 404.683 469.423 399.167V352.666H460.315Z" fill="#26A8D1"/>
<path d="M504.829 184.976C501.21 184.955 497.698 184.49 495.219 180.94C490.353 173.972 482.927 167.717 474.598 174.802C469.795 178.889 473.407 187.295 469.273 191.339C465.617 194.915 460.968 194.324 459.099 200.259C456.348 208.991 465.017 216.641 467.8 224.191C470.135 230.528 464.883 232.942 462.523 237.88C460.704 241.686 461.639 245.763 463.622 249.402C467.117 255.819 474.868 260.985 473.072 269.293C471.574 276.228 470.18 282.408 476.299 287.664C480.493 291.266 488.276 294.549 487.682 301.217C487.472 303.577 485.84 305.588 485.392 307.915C484.683 311.596 487.068 315.18 489.837 317.706C496.139 323.456 501.674 328.878 506.394 336.112C508.411 339.203 516.486 346.183 513.259 350.408C519.125 342.727 525.324 335.278 530.655 327.203C535.039 320.561 541.647 310.847 537.148 302.666C535.749 300.122 533.147 298.226 532.434 295.411C531.147 290.328 536.141 285.615 537.998 281.29C540.913 274.501 538.774 266.614 533.639 261.518C531.209 259.106 528.573 256.455 528.216 253.05C527.826 249.332 530.157 245.866 531.214 242.437C532.189 239.276 532.797 235.915 533.153 232.632C533.404 230.313 533.501 227.94 532.956 225.673C531.919 221.36 528.035 218.963 525.16 215.903C518.317 208.618 521.914 200.052 518.924 191.586C516.24 183.985 510.409 185.009 504.829 184.976Z" fill="#3DC8E8"/>
<path d="M513.987 359.069C516.529 329.944 514.194 300.587 508.814 271.903C503.681 244.54 496.945 217.083 486.731 191.144C483.357 182.573 479.568 174.162 475.262 166.018" stroke="#26A8D1" stroke-width="5" stroke-miterlimit="10"/>
<path d="M452.267 205.073C466.603 210.133 480.276 217.066 492.831 225.639C496.016 227.814 497.79 228.48 500.445 231.277" stroke="#26A8D1" stroke-width="5" stroke-miterlimit="10"/>
<path d="M507.242 262.48C493.482 253.588 477.878 247.565 461.713 244.906" stroke="#26A8D1" stroke-width="5" stroke-miterlimit="10"/>
<path d="M512.685 300.052C499.88 288.956 484.271 281.121 467.721 277.483" stroke="#26A8D1" stroke-width="5" stroke-miterlimit="10"/>
<path d="M499.734 230.318C500.735 214.908 504.57 199.687 510.991 185.643" stroke="#26A8D1" stroke-width="5" stroke-miterlimit="10"/>
<path d="M507.067 261.211C513.573 247.291 522.972 234.732 534.492 224.563" stroke="#26A8D1" stroke-width="5" stroke-miterlimit="10"/>
<path d="M513.538 301.121C514.437 296.82 516.015 292.662 518.193 288.847C520.728 284.408 524.044 280.472 527.421 276.635C529.853 273.873 532.326 271.146 534.84 268.458" stroke="#26A8D1" stroke-width="5" stroke-miterlimit="10"/>
<path d="M549.269 238.062C551.896 238.547 554.509 238.696 556.798 236.464C561.292 232.084 567.545 228.574 572.605 234.867C575.524 238.495 571.74 244.094 574.179 247.599C576.336 250.699 579.79 250.914 580.325 255.478C581.112 262.192 573.764 266.542 570.7 271.633C568.13 275.906 571.605 278.385 572.633 282.293C573.426 285.305 572.184 288.134 570.242 290.499C566.818 294.669 560.481 297.344 560.633 303.619C560.761 308.857 560.916 313.533 555.75 316.498C552.209 318.531 546.11 319.835 545.617 324.754C545.443 326.495 546.349 328.179 546.351 329.929C546.356 332.697 544.13 334.966 541.771 336.416C536.404 339.714 531.639 342.881 527.214 347.475C525.323 349.439 518.499 353.384 520.255 356.896C517.064 350.512 513.597 344.25 510.849 337.655C508.588 332.23 505.139 324.269 509.535 318.958C510.901 317.306 513.051 316.291 513.958 314.347C515.596 310.838 512.625 306.728 511.877 303.335C510.702 298.006 513.346 292.582 517.776 289.595C519.872 288.183 522.152 286.624 522.882 284.203C523.679 281.561 522.468 278.724 522.176 276.09C521.906 273.662 521.931 271.14 522.127 268.709C522.266 266.992 522.524 265.258 523.233 263.689C524.583 260.704 527.731 259.502 530.24 257.681C536.212 253.344 534.789 246.632 538.129 240.905C541.128 235.763 545.216 237.313 549.269 238.062Z" fill="#26A8D1"/>
<path d="M518.53 363.077C520.718 341.598 526.475 320.627 534.347 300.565C541.858 281.427 550.545 262.443 561.544 245.041C565.178 239.291 569.091 233.714 573.341 228.402" stroke="#3DC8E8" stroke-width="5" stroke-miterlimit="10"/>
<path d="M584.614 259.915C573.515 261.601 562.637 264.737 552.344 269.218C549.732 270.355 548.353 270.593 546.04 272.254" stroke="#3DC8E8" stroke-width="5" stroke-miterlimit="10"/>
<path d="M536.79 293.947C548.001 289.402 560.154 287.192 572.247 287.501" stroke="#3DC8E8" stroke-width="5" stroke-miterlimit="10"/>
<path d="M527.643 320.448C538.468 314.171 550.874 310.648 563.382 310.301" stroke="#3DC8E8" stroke-width="5" stroke-miterlimit="10"/>
<path d="M546.689 271.656C548.096 260.34 547.421 248.768 544.708 237.692" stroke="#3DC8E8" stroke-width="5" stroke-miterlimit="10"/>
<path d="M537.092 293.051C534.299 282.054 529.22 271.642 522.271 262.672" stroke="#3DC8E8" stroke-width="5" stroke-miterlimit="10"/>
<path d="M526.876 321.105C526.819 317.861 526.251 314.627 525.198 311.557C523.974 307.987 522.113 304.673 520.195 301.423C518.813 299.082 517.396 296.762 515.945 294.464" stroke="#3DC8E8" stroke-width="5" stroke-miterlimit="10"/>
<path d="M492.979 355.638H546.677L537.256 409.375H502.4L492.979 355.638Z" fill="#EFB126"/>
<path d="M553.251 340.554H486.406V355.637H553.251V340.554Z" fill="#FFC73C"/>
<path opacity="0.1" d="M545.427 362.764H494.228L492.979 355.638H546.677L545.427 362.764Z" fill="#231F20"/>
<path fill-rule="evenodd" clip-rule="evenodd" d="M313.768 250.961C315.135 256.648 313.694 262.777 310.588 268.002C307.579 273.065 303.006 277.279 297.909 279.419C289.771 282.835 279.789 283.108 271.26 281.078C265.978 279.82 261.244 276.401 258.391 271.782C255.249 266.697 254.417 260.266 256.801 254.707C257.413 253.28 258.184 252.018 259.081 250.898C254.804 252.671 250.677 254.835 246.662 257.099C245.67 257.659 244.639 258.205 243.598 258.756C238.583 261.413 233.328 264.196 231.008 269.212C224.218 283.887 218.191 299.196 213.193 314.571L212.962 315.28C208.846 327.93 204.541 341.158 211.01 353.956C212.278 356.464 213.886 358.758 215.494 361.051L215.494 361.052C216.596 362.622 217.697 364.193 218.689 365.833C221.41 370.329 222.425 374.552 222.781 379.738C223.108 384.488 223.253 389.243 223.306 394H338.879C340.53 374.646 343.623 355.416 348.127 336.521C348.845 333.506 349.81 330.071 350.85 326.364L350.85 326.363L350.851 326.362L350.851 326.361C352.102 321.902 353.464 317.05 354.641 312.066C358.218 296.918 360.073 281.42 351.966 271.102C348.305 266.442 341.782 263.197 336.444 260.89C333.842 259.765 331.226 258.544 328.59 257.313L328.59 257.313L328.589 257.313L328.589 257.313C323.722 255.041 318.79 252.738 313.768 250.961Z" fill="#3DC8E8"/>
<path d="M293.116 410.215C289.242 411.015 286.215 414.417 282.359 415.557C279.608 416.37 276.663 415.935 274.019 414.944C271.588 414.032 269.116 413.544 266.62 412.744C264.675 412.122 262.049 410.81 259.959 411.245C254.483 412.385 249.022 416.282 244.058 418.812C242.941 419.381 241.719 419.967 240.488 419.734C239.257 419.5 238.231 418.008 238.931 416.969C237.503 418.304 235.612 420.972 233.308 419.937C232.366 419.514 231.798 418.265 232.32 417.375C231.528 418.243 230.696 419.14 229.603 419.571C228.51 420.003 227.076 419.815 226.432 418.832C226.129 418.37 226.038 417.8 226.01 417.248C225.916 415.347 226.49 413.469 227.282 411.739C231.192 403.207 240.033 396.877 247.556 391.793C248.887 390.894 250.243 389.983 251.779 389.514C253.153 389.094 254.611 389.048 256.048 389.041C265.378 388.998 274.712 390.507 283.553 393.485C285.466 394.13 287.573 393.581 289.48 393.224C290.892 392.959 292.367 392.697 293.746 393.1C295.289 393.551 296.485 394.773 297.426 396.077C299.154 398.476 300.475 401.651 300.269 404.663C300.112 406.951 299.939 409.419 297.247 409.899C296.156 410.094 295.033 409.974 293.931 410.088C293.654 410.117 293.383 410.16 293.116 410.215Z" fill="#F8A17A"/>
<path d="M311.013 385.632C312.625 385.357 314.24 385.09 315.858 384.837C323.724 383.603 331.557 382.138 339.347 380.444C354.774 377.09 370.292 374.209 385.996 372.722C387.661 372.564 389.326 372.423 390.993 372.296C398.034 371.765 405.411 371.592 411.856 374.957C418.3 378.324 423.427 386.288 421.852 393.966C420.747 399.36 416.622 403.419 412.039 405.466C407.456 407.512 402.41 407.869 397.46 408.202C381.426 409.281 365.392 410.361 349.358 411.44C341.419 411.969 333.481 412.518 325.543 413.07C317.963 413.596 310.267 414.667 302.666 414.659C299.45 414.656 295.861 414.053 293.159 411.908C289.403 408.926 287.143 402.576 286.779 397.615C286.59 395.038 287.093 391.91 289.067 390.316C290.123 389.462 291.466 389.201 292.759 388.964C298.853 387.842 304.916 386.672 311.013 385.632Z" fill="#3DC8E8"/>
</svg>
